<svg width="20" height="20" viewBox="0 0 20 20" fill="none" xmlns="http://www.w3.org/2000/svg">
<path fill-rule="evenodd" clip-rule="evenodd" d="M20 10C20 4.47715 15.5228 4.82823e-07 10 0C4.47715 -4.82823e-07 4.82824e-07 4.47715 0 10C-4.82822e-07 15.5228 4.47715 20 10 20C15.5228 20 20 15.5228 20 10ZM2 10C2 5.58172 5.58172 2 10 2C14.4183 2 18 5.58172 18 10C18 14.4183 14.4183 18 10 18C5.58172 18 2 14.4183 2 10Z" fill="white"/>
<path fill-rule="evenodd" clip-rule="evenodd" d="M10 2C5.58172 2 2 5.58172 2 10C2 14.4183 5.58172 18 10 18C14.4183 18 18 14.4183 18 10C18 5.58172 14.4183 2 10 2ZM10 15C9.44771 15 9 14.5523 9 14V9C9 8.44771 9.44771 8 10 8C10.5523 8 11 8.44771 11 9V14C11 14.5523 10.5523 15 10 15ZM10 5C9.44771 5 9 5.44771 9 6C9 6.55229 9.44771 7 10 7C10.5523 7 11 6.55229 11 6C11 5.44771 10.5523 5 10 5Z" fill="white"/>
</svg>
