<svg width="156" height="109" viewBox="0 0 156 109" fill="none" xmlns="http://www.w3.org/2000/svg">
<g clip-path="url(#clip0_10_6867)">
<path d="M2.46681 78.8722C8.30878 68.6187 14.2469 58.4277 20.1257 48.1982C25.5768 59.1357 32.5545 69.2418 38.0536 80.1553C43.0274 89.9074 37.6756 103.252 27.3613 106.881C21.5689 109.325 14.7627 108.543 9.40925 105.378C0.707969 100.087 -2.77447 87.7321 2.46841 78.8722H2.46681Z" fill="#D8D8D8"/>
<path d="M144.849 105.296C134.267 111.308 120.82 107.606 114.81 97.026L85.3196 45.129C80.0687 34.7202 83.8587 21.9005 94.1186 16.0714C104.699 10.0596 118.145 13.7615 124.15 24.3305L153.615 76.181C158.909 86.6075 155.122 99.456 144.849 105.295V105.296Z" fill="#F4F4F4"/>
<path d="M57.8126 11.1408L94.2468 75.2567C100.259 85.837 96.5567 99.2846 85.9764 105.296C75.3962 111.308 61.9486 107.606 55.9368 97.026L19.5026 32.9101C13.4972 22.341 17.1991 8.89343 27.7794 2.88166C38.3596 -3.13011 51.8072 0.571784 57.8126 11.1408Z" fill="#F4F4F4"/>
</g>
<defs>
<clipPath id="clip0_10_6867">
<rect width="156" height="108.321" fill="white"/>
</clipPath>
</defs>
</svg>
