<svg width="313" height="218" viewBox="0 0 313 218" fill="none" xmlns="http://www.w3.org/2000/svg">
<g clip-path="url(#clip0_2_8)">
<path d="M4.95181 158.24C16.6721 137.671 28.5862 117.222 40.3795 96.7004C51.3153 118.645 65.3129 138.919 76.3472 160.816C86.3269 180.381 75.5881 207.154 54.8949 214.437C43.2731 219.341 29.6184 217.772 18.8796 211.423C1.42302 200.808 -5.5647 176.02 4.95499 158.243L4.95181 158.24Z" fill="#1B6B93"/>
<path d="M290.609 211.255C269.379 223.315 242.4 215.889 230.34 194.662L171.177 90.5418C160.641 69.6613 168.245 43.9401 188.83 32.2452C210.057 20.1851 237.033 27.6111 249.083 48.8156L308.196 152.844C318.821 173.762 311.22 199.537 290.609 211.255Z" fill="#4FC0D0"/>
<path d="M115.99 22.3512L189.084 150.985C201.148 172.212 193.718 199.191 172.492 211.254C151.265 223.318 124.286 215.889 112.223 194.662L39.128 66.0276C27.0806 44.8231 34.5066 17.8442 55.7334 5.784C76.9601 -6.27933 103.939 1.14987 115.99 22.3544V22.3512Z" fill="#4FC0D0"/>
</g>
<defs>
<clipPath id="clip0_2_8">
<rect width="312.98" height="217.321" fill="white"/>
</clipPath>
</defs>
</svg>
